%TF.GenerationSoftware,KiCad,Pcbnew,5.1.7-a382d34a8~87~ubuntu18.04.1*%
%TF.CreationDate,2021-11-07T17:51:24-08:00*%
%TF.ProjectId,i2c_led,6932635f-6c65-4642-9e6b-696361645f70,rev?*%
%TF.SameCoordinates,Original*%
%TF.FileFunction,Soldermask,Top*%
%TF.FilePolarity,Negative*%
%FSLAX46Y46*%
G04 Gerber Fmt 4.6, Leading zero omitted, Abs format (unit mm)*
G04 Created by KiCad (PCBNEW 5.1.7-a382d34a8~87~ubuntu18.04.1) date 2021-11-07 17:51:24*
%MOMM*%
%LPD*%
G01*
G04 APERTURE LIST*
%ADD10C,3.570000*%
%ADD11R,3.000000X0.800000*%
%ADD12R,1.600000X0.400000*%
%ADD13R,0.900000X0.800000*%
%ADD14R,0.800000X0.900000*%
%ADD15R,0.650000X0.400000*%
%ADD16R,1.060000X0.650000*%
G04 APERTURE END LIST*
D10*
%TO.C,M4*%
X52540000Y-67460000D03*
%TD*%
%TO.C,M3*%
X72860000Y-67460000D03*
%TD*%
%TO.C,M2*%
X72860000Y-52540000D03*
%TD*%
%TO.C,M1*%
X52540000Y-52540000D03*
%TD*%
%TO.C,C4*%
G36*
G01*
X69150000Y-56025000D02*
X69150000Y-56975000D01*
G75*
G02*
X68900000Y-57225000I-250000J0D01*
G01*
X68400000Y-57225000D01*
G75*
G02*
X68150000Y-56975000I0J250000D01*
G01*
X68150000Y-56025000D01*
G75*
G02*
X68400000Y-55775000I250000J0D01*
G01*
X68900000Y-55775000D01*
G75*
G02*
X69150000Y-56025000I0J-250000D01*
G01*
G37*
G36*
G01*
X67250000Y-56025000D02*
X67250000Y-56975000D01*
G75*
G02*
X67000000Y-57225000I-250000J0D01*
G01*
X66500000Y-57225000D01*
G75*
G02*
X66250000Y-56975000I0J250000D01*
G01*
X66250000Y-56025000D01*
G75*
G02*
X66500000Y-55775000I250000J0D01*
G01*
X67000000Y-55775000D01*
G75*
G02*
X67250000Y-56025000I0J-250000D01*
G01*
G37*
%TD*%
%TO.C,D1*%
G36*
G01*
X62956250Y-61225000D02*
X62443750Y-61225000D01*
G75*
G02*
X62225000Y-61006250I0J218750D01*
G01*
X62225000Y-60568750D01*
G75*
G02*
X62443750Y-60350000I218750J0D01*
G01*
X62956250Y-60350000D01*
G75*
G02*
X63175000Y-60568750I0J-218750D01*
G01*
X63175000Y-61006250D01*
G75*
G02*
X62956250Y-61225000I-218750J0D01*
G01*
G37*
G36*
G01*
X62956250Y-59650000D02*
X62443750Y-59650000D01*
G75*
G02*
X62225000Y-59431250I0J218750D01*
G01*
X62225000Y-58993750D01*
G75*
G02*
X62443750Y-58775000I218750J0D01*
G01*
X62956250Y-58775000D01*
G75*
G02*
X63175000Y-58993750I0J-218750D01*
G01*
X63175000Y-59431250D01*
G75*
G02*
X62956250Y-59650000I-218750J0D01*
G01*
G37*
%TD*%
D11*
%TO.C,J1*%
X52300000Y-62650000D03*
X52300000Y-57350000D03*
D12*
X54625000Y-61500000D03*
X54625000Y-60500000D03*
X54625000Y-59500000D03*
X54625000Y-58500000D03*
%TD*%
%TO.C,J2*%
X70775000Y-61500000D03*
X70775000Y-60500000D03*
X70775000Y-59500000D03*
X70775000Y-58500000D03*
D11*
X73100000Y-62650000D03*
X73100000Y-57350000D03*
%TD*%
%TO.C,L1*%
G36*
G01*
X60300000Y-53150001D02*
X60300000Y-51749999D01*
G75*
G02*
X60549999Y-51500000I249999J0D01*
G01*
X61100001Y-51500000D01*
G75*
G02*
X61350000Y-51749999I0J-249999D01*
G01*
X61350000Y-53150001D01*
G75*
G02*
X61100001Y-53400000I-249999J0D01*
G01*
X60549999Y-53400000D01*
G75*
G02*
X60300000Y-53150001I0J249999D01*
G01*
G37*
G36*
G01*
X63450000Y-53150001D02*
X63450000Y-51749999D01*
G75*
G02*
X63699999Y-51500000I249999J0D01*
G01*
X64250001Y-51500000D01*
G75*
G02*
X64500000Y-51749999I0J-249999D01*
G01*
X64500000Y-53150001D01*
G75*
G02*
X64250001Y-53400000I-249999J0D01*
G01*
X63699999Y-53400000D01*
G75*
G02*
X63450000Y-53150001I0J249999D01*
G01*
G37*
%TD*%
D13*
%TO.C,Q1*%
X66700000Y-62100000D03*
X68700000Y-61150000D03*
X68700000Y-63050000D03*
%TD*%
D14*
%TO.C,Q2*%
X58550000Y-51950000D03*
X56650000Y-51950000D03*
X57600000Y-53950000D03*
%TD*%
%TO.C,Q3*%
X57250000Y-66700000D03*
X56300000Y-64700000D03*
X58200000Y-64700000D03*
%TD*%
D15*
%TO.C,U1*%
X63350000Y-66400000D03*
X63350000Y-67700000D03*
X61450000Y-67050000D03*
X63350000Y-67050000D03*
X61450000Y-67700000D03*
X61450000Y-66400000D03*
%TD*%
D14*
%TO.C,U2*%
X66750000Y-53950000D03*
X68650000Y-53950000D03*
X67700000Y-51950000D03*
%TD*%
D16*
%TO.C,U3*%
X69100000Y-68300000D03*
X69100000Y-67350000D03*
X69100000Y-66400000D03*
X66900000Y-66400000D03*
X66900000Y-68300000D03*
%TD*%
%TO.C,C1*%
G36*
G01*
X61690000Y-54770000D02*
X61690000Y-54430000D01*
G75*
G02*
X61830000Y-54290000I140000J0D01*
G01*
X62110000Y-54290000D01*
G75*
G02*
X62250000Y-54430000I0J-140000D01*
G01*
X62250000Y-54770000D01*
G75*
G02*
X62110000Y-54910000I-140000J0D01*
G01*
X61830000Y-54910000D01*
G75*
G02*
X61690000Y-54770000I0J140000D01*
G01*
G37*
G36*
G01*
X62650000Y-54770000D02*
X62650000Y-54430000D01*
G75*
G02*
X62790000Y-54290000I140000J0D01*
G01*
X63070000Y-54290000D01*
G75*
G02*
X63210000Y-54430000I0J-140000D01*
G01*
X63210000Y-54770000D01*
G75*
G02*
X63070000Y-54910000I-140000J0D01*
G01*
X62790000Y-54910000D01*
G75*
G02*
X62650000Y-54770000I0J140000D01*
G01*
G37*
%TD*%
%TO.C,C2*%
G36*
G01*
X59780000Y-67030000D02*
X60120000Y-67030000D01*
G75*
G02*
X60260000Y-67170000I0J-140000D01*
G01*
X60260000Y-67450000D01*
G75*
G02*
X60120000Y-67590000I-140000J0D01*
G01*
X59780000Y-67590000D01*
G75*
G02*
X59640000Y-67450000I0J140000D01*
G01*
X59640000Y-67170000D01*
G75*
G02*
X59780000Y-67030000I140000J0D01*
G01*
G37*
G36*
G01*
X59780000Y-66070000D02*
X60120000Y-66070000D01*
G75*
G02*
X60260000Y-66210000I0J-140000D01*
G01*
X60260000Y-66490000D01*
G75*
G02*
X60120000Y-66630000I-140000J0D01*
G01*
X59780000Y-66630000D01*
G75*
G02*
X59640000Y-66490000I0J140000D01*
G01*
X59640000Y-66210000D01*
G75*
G02*
X59780000Y-66070000I140000J0D01*
G01*
G37*
%TD*%
%TO.C,C3*%
G36*
G01*
X65620000Y-67250000D02*
X65280000Y-67250000D01*
G75*
G02*
X65140000Y-67110000I0J140000D01*
G01*
X65140000Y-66830000D01*
G75*
G02*
X65280000Y-66690000I140000J0D01*
G01*
X65620000Y-66690000D01*
G75*
G02*
X65760000Y-66830000I0J-140000D01*
G01*
X65760000Y-67110000D01*
G75*
G02*
X65620000Y-67250000I-140000J0D01*
G01*
G37*
G36*
G01*
X65620000Y-68210000D02*
X65280000Y-68210000D01*
G75*
G02*
X65140000Y-68070000I0J140000D01*
G01*
X65140000Y-67790000D01*
G75*
G02*
X65280000Y-67650000I140000J0D01*
G01*
X65620000Y-67650000D01*
G75*
G02*
X65760000Y-67790000I0J-140000D01*
G01*
X65760000Y-68070000D01*
G75*
G02*
X65620000Y-68210000I-140000J0D01*
G01*
G37*
%TD*%
%TO.C,R1*%
G36*
G01*
X62190000Y-65085000D02*
X62190000Y-64715000D01*
G75*
G02*
X62325000Y-64580000I135000J0D01*
G01*
X62595000Y-64580000D01*
G75*
G02*
X62730000Y-64715000I0J-135000D01*
G01*
X62730000Y-65085000D01*
G75*
G02*
X62595000Y-65220000I-135000J0D01*
G01*
X62325000Y-65220000D01*
G75*
G02*
X62190000Y-65085000I0J135000D01*
G01*
G37*
G36*
G01*
X61170000Y-65085000D02*
X61170000Y-64715000D01*
G75*
G02*
X61305000Y-64580000I135000J0D01*
G01*
X61575000Y-64580000D01*
G75*
G02*
X61710000Y-64715000I0J-135000D01*
G01*
X61710000Y-65085000D01*
G75*
G02*
X61575000Y-65220000I-135000J0D01*
G01*
X61305000Y-65220000D01*
G75*
G02*
X61170000Y-65085000I0J135000D01*
G01*
G37*
%TD*%
%TO.C,R2*%
G36*
G01*
X68220000Y-64985000D02*
X68220000Y-64615000D01*
G75*
G02*
X68355000Y-64480000I135000J0D01*
G01*
X68625000Y-64480000D01*
G75*
G02*
X68760000Y-64615000I0J-135000D01*
G01*
X68760000Y-64985000D01*
G75*
G02*
X68625000Y-65120000I-135000J0D01*
G01*
X68355000Y-65120000D01*
G75*
G02*
X68220000Y-64985000I0J135000D01*
G01*
G37*
G36*
G01*
X69240000Y-64985000D02*
X69240000Y-64615000D01*
G75*
G02*
X69375000Y-64480000I135000J0D01*
G01*
X69645000Y-64480000D01*
G75*
G02*
X69780000Y-64615000I0J-135000D01*
G01*
X69780000Y-64985000D01*
G75*
G02*
X69645000Y-65120000I-135000J0D01*
G01*
X69375000Y-65120000D01*
G75*
G02*
X69240000Y-64985000I0J135000D01*
G01*
G37*
%TD*%
%TO.C,R3*%
G36*
G01*
X57880000Y-61515000D02*
X57880000Y-61885000D01*
G75*
G02*
X57745000Y-62020000I-135000J0D01*
G01*
X57475000Y-62020000D01*
G75*
G02*
X57340000Y-61885000I0J135000D01*
G01*
X57340000Y-61515000D01*
G75*
G02*
X57475000Y-61380000I135000J0D01*
G01*
X57745000Y-61380000D01*
G75*
G02*
X57880000Y-61515000I0J-135000D01*
G01*
G37*
G36*
G01*
X56860000Y-61515000D02*
X56860000Y-61885000D01*
G75*
G02*
X56725000Y-62020000I-135000J0D01*
G01*
X56455000Y-62020000D01*
G75*
G02*
X56320000Y-61885000I0J135000D01*
G01*
X56320000Y-61515000D01*
G75*
G02*
X56455000Y-61380000I135000J0D01*
G01*
X56725000Y-61380000D01*
G75*
G02*
X56860000Y-61515000I0J-135000D01*
G01*
G37*
%TD*%
%TO.C,R4*%
G36*
G01*
X56860000Y-62815000D02*
X56860000Y-63185000D01*
G75*
G02*
X56725000Y-63320000I-135000J0D01*
G01*
X56455000Y-63320000D01*
G75*
G02*
X56320000Y-63185000I0J135000D01*
G01*
X56320000Y-62815000D01*
G75*
G02*
X56455000Y-62680000I135000J0D01*
G01*
X56725000Y-62680000D01*
G75*
G02*
X56860000Y-62815000I0J-135000D01*
G01*
G37*
G36*
G01*
X57880000Y-62815000D02*
X57880000Y-63185000D01*
G75*
G02*
X57745000Y-63320000I-135000J0D01*
G01*
X57475000Y-63320000D01*
G75*
G02*
X57340000Y-63185000I0J135000D01*
G01*
X57340000Y-62815000D01*
G75*
G02*
X57475000Y-62680000I135000J0D01*
G01*
X57745000Y-62680000D01*
G75*
G02*
X57880000Y-62815000I0J-135000D01*
G01*
G37*
%TD*%
%TO.C,R5*%
G36*
G01*
X58580000Y-68215000D02*
X58580000Y-68585000D01*
G75*
G02*
X58445000Y-68720000I-135000J0D01*
G01*
X58175000Y-68720000D01*
G75*
G02*
X58040000Y-68585000I0J135000D01*
G01*
X58040000Y-68215000D01*
G75*
G02*
X58175000Y-68080000I135000J0D01*
G01*
X58445000Y-68080000D01*
G75*
G02*
X58580000Y-68215000I0J-135000D01*
G01*
G37*
G36*
G01*
X57560000Y-68215000D02*
X57560000Y-68585000D01*
G75*
G02*
X57425000Y-68720000I-135000J0D01*
G01*
X57155000Y-68720000D01*
G75*
G02*
X57020000Y-68585000I0J135000D01*
G01*
X57020000Y-68215000D01*
G75*
G02*
X57155000Y-68080000I135000J0D01*
G01*
X57425000Y-68080000D01*
G75*
G02*
X57560000Y-68215000I0J-135000D01*
G01*
G37*
%TD*%
%TO.C,R6*%
G36*
G01*
X58410000Y-55815000D02*
X58410000Y-56185000D01*
G75*
G02*
X58275000Y-56320000I-135000J0D01*
G01*
X58005000Y-56320000D01*
G75*
G02*
X57870000Y-56185000I0J135000D01*
G01*
X57870000Y-55815000D01*
G75*
G02*
X58005000Y-55680000I135000J0D01*
G01*
X58275000Y-55680000D01*
G75*
G02*
X58410000Y-55815000I0J-135000D01*
G01*
G37*
G36*
G01*
X59430000Y-55815000D02*
X59430000Y-56185000D01*
G75*
G02*
X59295000Y-56320000I-135000J0D01*
G01*
X59025000Y-56320000D01*
G75*
G02*
X58890000Y-56185000I0J135000D01*
G01*
X58890000Y-55815000D01*
G75*
G02*
X59025000Y-55680000I135000J0D01*
G01*
X59295000Y-55680000D01*
G75*
G02*
X59430000Y-55815000I0J-135000D01*
G01*
G37*
%TD*%
M02*
