%TF.GenerationSoftware,KiCad,Pcbnew,5.1.7-a382d34a8~87~ubuntu18.04.1*%
%TF.CreationDate,2021-11-07T17:51:24-08:00*%
%TF.ProjectId,i2c_led,6932635f-6c65-4642-9e6b-696361645f70,rev?*%
%TF.SameCoordinates,Original*%
%TF.FileFunction,Legend,Bot*%
%TF.FilePolarity,Positive*%
%FSLAX46Y46*%
G04 Gerber Fmt 4.6, Leading zero omitted, Abs format (unit mm)*
G04 Created by KiCad (PCBNEW 5.1.7-a382d34a8~87~ubuntu18.04.1) date 2021-11-07 17:51:24*
%MOMM*%
%LPD*%
G01*
G04 APERTURE LIST*
%ADD10C,0.150000*%
G04 APERTURE END LIST*
D10*
X68771428Y-57977380D02*
X68771428Y-56977380D01*
X68342857Y-57072619D02*
X68295238Y-57025000D01*
X68200000Y-56977380D01*
X67961904Y-56977380D01*
X67866666Y-57025000D01*
X67819047Y-57072619D01*
X67771428Y-57167857D01*
X67771428Y-57263095D01*
X67819047Y-57405952D01*
X68390476Y-57977380D01*
X67771428Y-57977380D01*
X66771428Y-57882142D02*
X66819047Y-57929761D01*
X66961904Y-57977380D01*
X67057142Y-57977380D01*
X67200000Y-57929761D01*
X67295238Y-57834523D01*
X67342857Y-57739285D01*
X67390476Y-57548809D01*
X67390476Y-57405952D01*
X67342857Y-57215476D01*
X67295238Y-57120238D01*
X67200000Y-57025000D01*
X67057142Y-56977380D01*
X66961904Y-56977380D01*
X66819047Y-57025000D01*
X66771428Y-57072619D01*
X65104761Y-57977380D02*
X65580952Y-57977380D01*
X65580952Y-56977380D01*
X64771428Y-57453571D02*
X64438095Y-57453571D01*
X64295238Y-57977380D02*
X64771428Y-57977380D01*
X64771428Y-56977380D01*
X64295238Y-56977380D01*
X63866666Y-57977380D02*
X63866666Y-56977380D01*
X63628571Y-56977380D01*
X63485714Y-57025000D01*
X63390476Y-57120238D01*
X63342857Y-57215476D01*
X63295238Y-57405952D01*
X63295238Y-57548809D01*
X63342857Y-57739285D01*
X63390476Y-57834523D01*
X63485714Y-57929761D01*
X63628571Y-57977380D01*
X63866666Y-57977380D01*
X62247619Y-56977380D02*
X61914285Y-57977380D01*
X61580952Y-56977380D01*
X61057142Y-56977380D02*
X60961904Y-56977380D01*
X60866666Y-57025000D01*
X60819047Y-57072619D01*
X60771428Y-57167857D01*
X60723809Y-57358333D01*
X60723809Y-57596428D01*
X60771428Y-57786904D01*
X60819047Y-57882142D01*
X60866666Y-57929761D01*
X60961904Y-57977380D01*
X61057142Y-57977380D01*
X61152380Y-57929761D01*
X61200000Y-57882142D01*
X61247619Y-57786904D01*
X61295238Y-57596428D01*
X61295238Y-57358333D01*
X61247619Y-57167857D01*
X61200000Y-57072619D01*
X61152380Y-57025000D01*
X61057142Y-56977380D01*
X60295238Y-57882142D02*
X60247619Y-57929761D01*
X60295238Y-57977380D01*
X60342857Y-57929761D01*
X60295238Y-57882142D01*
X60295238Y-57977380D01*
X59295238Y-57977380D02*
X59866666Y-57977380D01*
X59580952Y-57977380D02*
X59580952Y-56977380D01*
X59676190Y-57120238D01*
X59771428Y-57215476D01*
X59866666Y-57263095D01*
X57533333Y-57977380D02*
X57866666Y-57501190D01*
X58104761Y-57977380D02*
X58104761Y-56977380D01*
X57723809Y-56977380D01*
X57628571Y-57025000D01*
X57580952Y-57072619D01*
X57533333Y-57167857D01*
X57533333Y-57310714D01*
X57580952Y-57405952D01*
X57628571Y-57453571D01*
X57723809Y-57501190D01*
X58104761Y-57501190D01*
X56580952Y-57977380D02*
X57152380Y-57977380D01*
X56866666Y-57977380D02*
X56866666Y-56977380D01*
X56961904Y-57120238D01*
X57057142Y-57215476D01*
X57152380Y-57263095D01*
X68938095Y-58960714D02*
X68747619Y-59627380D01*
X68557142Y-59151190D01*
X68366666Y-59627380D01*
X68176190Y-58960714D01*
X67890476Y-58960714D02*
X67700000Y-59627380D01*
X67509523Y-59151190D01*
X67319047Y-59627380D01*
X67128571Y-58960714D01*
X66842857Y-58960714D02*
X66652380Y-59627380D01*
X66461904Y-59151190D01*
X66271428Y-59627380D01*
X66080952Y-58960714D01*
X65700000Y-59532142D02*
X65652380Y-59579761D01*
X65700000Y-59627380D01*
X65747619Y-59579761D01*
X65700000Y-59532142D01*
X65700000Y-59627380D01*
X65223809Y-59627380D02*
X65223809Y-58960714D01*
X65223809Y-58627380D02*
X65271428Y-58675000D01*
X65223809Y-58722619D01*
X65176190Y-58675000D01*
X65223809Y-58627380D01*
X65223809Y-58722619D01*
X64604761Y-59627380D02*
X64700000Y-59579761D01*
X64747619Y-59532142D01*
X64795238Y-59436904D01*
X64795238Y-59151190D01*
X64747619Y-59055952D01*
X64700000Y-59008333D01*
X64604761Y-58960714D01*
X64461904Y-58960714D01*
X64366666Y-59008333D01*
X64319047Y-59055952D01*
X64271428Y-59151190D01*
X64271428Y-59436904D01*
X64319047Y-59532142D01*
X64366666Y-59579761D01*
X64461904Y-59627380D01*
X64604761Y-59627380D01*
X63842857Y-59627380D02*
X63842857Y-58960714D01*
X63842857Y-59151190D02*
X63795238Y-59055952D01*
X63747619Y-59008333D01*
X63652380Y-58960714D01*
X63557142Y-58960714D01*
X63080952Y-59627380D02*
X63176190Y-59579761D01*
X63223809Y-59532142D01*
X63271428Y-59436904D01*
X63271428Y-59151190D01*
X63223809Y-59055952D01*
X63176190Y-59008333D01*
X63080952Y-58960714D01*
X62938095Y-58960714D01*
X62842857Y-59008333D01*
X62795238Y-59055952D01*
X62747619Y-59151190D01*
X62747619Y-59436904D01*
X62795238Y-59532142D01*
X62842857Y-59579761D01*
X62938095Y-59627380D01*
X63080952Y-59627380D01*
X61890476Y-59627380D02*
X61890476Y-58627380D01*
X61890476Y-59579761D02*
X61985714Y-59627380D01*
X62176190Y-59627380D01*
X62271428Y-59579761D01*
X62319047Y-59532142D01*
X62366666Y-59436904D01*
X62366666Y-59151190D01*
X62319047Y-59055952D01*
X62271428Y-59008333D01*
X62176190Y-58960714D01*
X61985714Y-58960714D01*
X61890476Y-59008333D01*
X61033333Y-59579761D02*
X61128571Y-59627380D01*
X61319047Y-59627380D01*
X61414285Y-59579761D01*
X61461904Y-59484523D01*
X61461904Y-59103571D01*
X61414285Y-59008333D01*
X61319047Y-58960714D01*
X61128571Y-58960714D01*
X61033333Y-59008333D01*
X60985714Y-59103571D01*
X60985714Y-59198809D01*
X61461904Y-59294047D01*
X60414285Y-59627380D02*
X60509523Y-59579761D01*
X60557142Y-59532142D01*
X60604761Y-59436904D01*
X60604761Y-59151190D01*
X60557142Y-59055952D01*
X60509523Y-59008333D01*
X60414285Y-58960714D01*
X60271428Y-58960714D01*
X60176190Y-59008333D01*
X60128571Y-59055952D01*
X60080952Y-59151190D01*
X60080952Y-59436904D01*
X60128571Y-59532142D01*
X60176190Y-59579761D01*
X60271428Y-59627380D01*
X60414285Y-59627380D01*
X59652380Y-59532142D02*
X59604761Y-59579761D01*
X59652380Y-59627380D01*
X59700000Y-59579761D01*
X59652380Y-59532142D01*
X59652380Y-59627380D01*
X58747619Y-59579761D02*
X58842857Y-59627380D01*
X59033333Y-59627380D01*
X59128571Y-59579761D01*
X59176190Y-59532142D01*
X59223809Y-59436904D01*
X59223809Y-59151190D01*
X59176190Y-59055952D01*
X59128571Y-59008333D01*
X59033333Y-58960714D01*
X58842857Y-58960714D01*
X58747619Y-59008333D01*
X58176190Y-59627380D02*
X58271428Y-59579761D01*
X58319047Y-59532142D01*
X58366666Y-59436904D01*
X58366666Y-59151190D01*
X58319047Y-59055952D01*
X58271428Y-59008333D01*
X58176190Y-58960714D01*
X58033333Y-58960714D01*
X57938095Y-59008333D01*
X57890476Y-59055952D01*
X57842857Y-59151190D01*
X57842857Y-59436904D01*
X57890476Y-59532142D01*
X57938095Y-59579761D01*
X58033333Y-59627380D01*
X58176190Y-59627380D01*
X57414285Y-59627380D02*
X57414285Y-58960714D01*
X57414285Y-59055952D02*
X57366666Y-59008333D01*
X57271428Y-58960714D01*
X57128571Y-58960714D01*
X57033333Y-59008333D01*
X56985714Y-59103571D01*
X56985714Y-59627380D01*
X56985714Y-59103571D02*
X56938095Y-59008333D01*
X56842857Y-58960714D01*
X56700000Y-58960714D01*
X56604761Y-59008333D01*
X56557142Y-59103571D01*
X56557142Y-59627380D01*
X67723809Y-62927380D02*
X67723809Y-61927380D01*
X67295238Y-62022619D02*
X67247619Y-61975000D01*
X67152380Y-61927380D01*
X66914285Y-61927380D01*
X66819047Y-61975000D01*
X66771428Y-62022619D01*
X66723809Y-62117857D01*
X66723809Y-62213095D01*
X66771428Y-62355952D01*
X67342857Y-62927380D01*
X66723809Y-62927380D01*
X65723809Y-62832142D02*
X65771428Y-62879761D01*
X65914285Y-62927380D01*
X66009523Y-62927380D01*
X66152380Y-62879761D01*
X66247619Y-62784523D01*
X66295238Y-62689285D01*
X66342857Y-62498809D01*
X66342857Y-62355952D01*
X66295238Y-62165476D01*
X66247619Y-62070238D01*
X66152380Y-61975000D01*
X66009523Y-61927380D01*
X65914285Y-61927380D01*
X65771428Y-61975000D01*
X65723809Y-62022619D01*
X64580952Y-62641666D02*
X64104761Y-62641666D01*
X64676190Y-62927380D02*
X64342857Y-61927380D01*
X64009523Y-62927380D01*
X63247619Y-62927380D02*
X63247619Y-61927380D01*
X63247619Y-62879761D02*
X63342857Y-62927380D01*
X63533333Y-62927380D01*
X63628571Y-62879761D01*
X63676190Y-62832142D01*
X63723809Y-62736904D01*
X63723809Y-62451190D01*
X63676190Y-62355952D01*
X63628571Y-62308333D01*
X63533333Y-62260714D01*
X63342857Y-62260714D01*
X63247619Y-62308333D01*
X62342857Y-62927380D02*
X62342857Y-61927380D01*
X62342857Y-62879761D02*
X62438095Y-62927380D01*
X62628571Y-62927380D01*
X62723809Y-62879761D01*
X62771428Y-62832142D01*
X62819047Y-62736904D01*
X62819047Y-62451190D01*
X62771428Y-62355952D01*
X62723809Y-62308333D01*
X62628571Y-62260714D01*
X62438095Y-62260714D01*
X62342857Y-62308333D01*
X61866666Y-62927380D02*
X61866666Y-62260714D01*
X61866666Y-62451190D02*
X61819047Y-62355952D01*
X61771428Y-62308333D01*
X61676190Y-62260714D01*
X61580952Y-62260714D01*
X60295238Y-61927380D02*
X60200000Y-61927380D01*
X60104761Y-61975000D01*
X60057142Y-62022619D01*
X60009523Y-62117857D01*
X59961904Y-62308333D01*
X59961904Y-62546428D01*
X60009523Y-62736904D01*
X60057142Y-62832142D01*
X60104761Y-62879761D01*
X60200000Y-62927380D01*
X60295238Y-62927380D01*
X60390476Y-62879761D01*
X60438095Y-62832142D01*
X60485714Y-62736904D01*
X60533333Y-62546428D01*
X60533333Y-62308333D01*
X60485714Y-62117857D01*
X60438095Y-62022619D01*
X60390476Y-61975000D01*
X60295238Y-61927380D01*
X59628571Y-62927380D02*
X59104761Y-62260714D01*
X59628571Y-62260714D02*
X59104761Y-62927380D01*
X58771428Y-62022619D02*
X58723809Y-61975000D01*
X58628571Y-61927380D01*
X58390476Y-61927380D01*
X58295238Y-61975000D01*
X58247619Y-62022619D01*
X58200000Y-62117857D01*
X58200000Y-62213095D01*
X58247619Y-62355952D01*
X58819047Y-62927380D01*
X58200000Y-62927380D01*
X57914285Y-62260714D02*
X57533333Y-62260714D01*
X57771428Y-62927380D02*
X57771428Y-62070238D01*
X57723809Y-61975000D01*
X57628571Y-61927380D01*
X57533333Y-61927380D01*
%TO.C,M4*%
X54990000Y-67460000D02*
G75*
G03*
X54990000Y-67460000I-2450000J0D01*
G01*
%TO.C,M3*%
X75310000Y-67460000D02*
G75*
G03*
X75310000Y-67460000I-2450000J0D01*
G01*
%TO.C,M2*%
X75310000Y-52540000D02*
G75*
G03*
X75310000Y-52540000I-2450000J0D01*
G01*
%TO.C,M1*%
X54990000Y-52540000D02*
G75*
G03*
X54990000Y-52540000I-2450000J0D01*
G01*
%TD*%
M02*
