%TF.GenerationSoftware,KiCad,Pcbnew,5.1.7-a382d34a8~87~ubuntu18.04.1*%
%TF.CreationDate,2021-11-08T07:30:38-08:00*%
%TF.ProjectId,i2c_led,6932635f-6c65-4642-9e6b-696361645f70,rev?*%
%TF.SameCoordinates,Original*%
%TF.FileFunction,Legend,Top*%
%TF.FilePolarity,Positive*%
%FSLAX46Y46*%
G04 Gerber Fmt 4.6, Leading zero omitted, Abs format (unit mm)*
G04 Created by KiCad (PCBNEW 5.1.7-a382d34a8~87~ubuntu18.04.1) date 2021-11-08 07:30:38*
%MOMM*%
%LPD*%
G01*
G04 APERTURE LIST*
%ADD10C,0.250000*%
%ADD11C,0.150000*%
%ADD12C,0.050000*%
%ADD13C,0.120000*%
%ADD14C,0.160000*%
G04 APERTURE END LIST*
D10*
X65000000Y-60000000D02*
G75*
G03*
X65000000Y-60000000I-2300000J0D01*
G01*
X65700000Y-60000000D02*
G75*
G03*
X65700000Y-60000000I-3000000J0D01*
G01*
D11*
%TO.C,J1*%
X50125000Y-57000000D02*
X50125000Y-60000000D01*
X50125000Y-60000000D02*
X50125000Y-63000000D01*
X50125000Y-57000000D02*
X54475000Y-57000000D01*
X54475000Y-57000000D02*
X54475000Y-63000000D01*
X54475000Y-63000000D02*
X50125000Y-63000000D01*
%TO.C,J2*%
X75275000Y-63000000D02*
X75275000Y-60000000D01*
X75275000Y-60000000D02*
X75275000Y-57000000D01*
X75275000Y-63000000D02*
X70925000Y-63000000D01*
X70925000Y-63000000D02*
X70925000Y-57000000D01*
X70925000Y-57000000D02*
X75275000Y-57000000D01*
%TO.C,M4*%
X54990000Y-67460000D02*
G75*
G03*
X54990000Y-67460000I-2450000J0D01*
G01*
D12*
X54440000Y-67460000D02*
G75*
G03*
X54440000Y-67460000I-1900000J0D01*
G01*
D11*
%TO.C,M3*%
X75310000Y-67460000D02*
G75*
G03*
X75310000Y-67460000I-2450000J0D01*
G01*
D12*
X74760000Y-67460000D02*
G75*
G03*
X74760000Y-67460000I-1900000J0D01*
G01*
D11*
%TO.C,M2*%
X75310000Y-52540000D02*
G75*
G03*
X75310000Y-52540000I-2450000J0D01*
G01*
D12*
X74760000Y-52540000D02*
G75*
G03*
X74760000Y-52540000I-1900000J0D01*
G01*
D11*
%TO.C,M1*%
X54990000Y-52540000D02*
G75*
G03*
X54990000Y-52540000I-2450000J0D01*
G01*
D12*
X54440000Y-52540000D02*
G75*
G03*
X54440000Y-52540000I-1900000J0D01*
G01*
D13*
%TO.C,C4*%
X67961252Y-55765000D02*
X67438748Y-55765000D01*
X67961252Y-57235000D02*
X67438748Y-57235000D01*
%TO.C,D1*%
X63435000Y-61485000D02*
X63435000Y-59200000D01*
X61965000Y-61485000D02*
X63435000Y-61485000D01*
X61965000Y-59200000D02*
X61965000Y-61485000D01*
%TO.C,L1*%
X61564758Y-53360000D02*
X63235242Y-53360000D01*
X61564758Y-51540000D02*
X63235242Y-51540000D01*
%TO.C,Q1*%
X66940000Y-60520000D02*
X66940000Y-61450000D01*
X66940000Y-63680000D02*
X66940000Y-62750000D01*
X66940000Y-63680000D02*
X69100000Y-63680000D01*
X66940000Y-60520000D02*
X68400000Y-60520000D01*
%TO.C,Q2*%
X56020000Y-53710000D02*
X56020000Y-52250000D01*
X59180000Y-53710000D02*
X59180000Y-51550000D01*
X59180000Y-53710000D02*
X58250000Y-53710000D01*
X56020000Y-53710000D02*
X56950000Y-53710000D01*
%TO.C,Q3*%
X55670000Y-66460000D02*
X56600000Y-66460000D01*
X58830000Y-66460000D02*
X57900000Y-66460000D01*
X58830000Y-66460000D02*
X58830000Y-64300000D01*
X55670000Y-66460000D02*
X55670000Y-65000000D01*
%TO.C,U1*%
X63100000Y-65890000D02*
X61200000Y-65890000D01*
X61700000Y-68210000D02*
X63100000Y-68210000D01*
%TO.C,U2*%
X69280000Y-52190000D02*
X69280000Y-53650000D01*
X66120000Y-52190000D02*
X66120000Y-54350000D01*
X66120000Y-52190000D02*
X67050000Y-52190000D01*
X69280000Y-52190000D02*
X68350000Y-52190000D01*
%TO.C,U3*%
X67100000Y-68960000D02*
X69550000Y-68960000D01*
X68900000Y-65740000D02*
X67100000Y-65740000D01*
%TO.C,C1*%
X62342164Y-54240000D02*
X62557836Y-54240000D01*
X62342164Y-54960000D02*
X62557836Y-54960000D01*
%TO.C,C2*%
X59590000Y-66722164D02*
X59590000Y-66937836D01*
X60310000Y-66722164D02*
X60310000Y-66937836D01*
%TO.C,C3*%
X65810000Y-67557836D02*
X65810000Y-67342164D01*
X65090000Y-67557836D02*
X65090000Y-67342164D01*
%TO.C,R1*%
X61796359Y-65280000D02*
X62103641Y-65280000D01*
X61796359Y-64520000D02*
X62103641Y-64520000D01*
%TO.C,R2*%
X68846359Y-64420000D02*
X69153641Y-64420000D01*
X68846359Y-65180000D02*
X69153641Y-65180000D01*
%TO.C,R3*%
X57253641Y-62080000D02*
X56946359Y-62080000D01*
X57253641Y-61320000D02*
X56946359Y-61320000D01*
%TO.C,R4*%
X57253641Y-62620000D02*
X56946359Y-62620000D01*
X57253641Y-63380000D02*
X56946359Y-63380000D01*
%TO.C,R5*%
X57953641Y-68780000D02*
X57646359Y-68780000D01*
X57953641Y-68020000D02*
X57646359Y-68020000D01*
%TO.C,R6*%
X58803641Y-55620000D02*
X58496359Y-55620000D01*
X58803641Y-56380000D02*
X58496359Y-56380000D01*
%TO.C,J1*%
D14*
X54233333Y-55921904D02*
X54233333Y-56493333D01*
X54195238Y-56607619D01*
X54119047Y-56683809D01*
X54004761Y-56721904D01*
X53928571Y-56721904D01*
X55033333Y-56721904D02*
X54576190Y-56721904D01*
X54804761Y-56721904D02*
X54804761Y-55921904D01*
X54728571Y-56036190D01*
X54652380Y-56112380D01*
X54576190Y-56150476D01*
%TO.C,J2*%
X70633333Y-55921904D02*
X70633333Y-56493333D01*
X70595238Y-56607619D01*
X70519047Y-56683809D01*
X70404761Y-56721904D01*
X70328571Y-56721904D01*
X70976190Y-55998095D02*
X71014285Y-55960000D01*
X71090476Y-55921904D01*
X71280952Y-55921904D01*
X71357142Y-55960000D01*
X71395238Y-55998095D01*
X71433333Y-56074285D01*
X71433333Y-56150476D01*
X71395238Y-56264761D01*
X70938095Y-56721904D01*
X71433333Y-56721904D01*
%TO.C,C4*%
X65116666Y-56535714D02*
X65078571Y-56573809D01*
X64964285Y-56611904D01*
X64888095Y-56611904D01*
X64773809Y-56573809D01*
X64697619Y-56497619D01*
X64659523Y-56421428D01*
X64621428Y-56269047D01*
X64621428Y-56154761D01*
X64659523Y-56002380D01*
X64697619Y-55926190D01*
X64773809Y-55850000D01*
X64888095Y-55811904D01*
X64964285Y-55811904D01*
X65078571Y-55850000D01*
X65116666Y-55888095D01*
X65802380Y-56078571D02*
X65802380Y-56611904D01*
X65611904Y-55773809D02*
X65421428Y-56345238D01*
X65916666Y-56345238D01*
X67566666Y-56785714D02*
X67528571Y-56823809D01*
X67414285Y-56861904D01*
X67338095Y-56861904D01*
X67223809Y-56823809D01*
X67147619Y-56747619D01*
X67109523Y-56671428D01*
X67071428Y-56519047D01*
X67071428Y-56404761D01*
X67109523Y-56252380D01*
X67147619Y-56176190D01*
X67223809Y-56100000D01*
X67338095Y-56061904D01*
X67414285Y-56061904D01*
X67528571Y-56100000D01*
X67566666Y-56138095D01*
X68252380Y-56328571D02*
X68252380Y-56861904D01*
X68061904Y-56023809D02*
X67871428Y-56595238D01*
X68366666Y-56595238D01*
%TO.C,D1*%
X61631904Y-60590476D02*
X60831904Y-60590476D01*
X60831904Y-60400000D01*
X60870000Y-60285714D01*
X60946190Y-60209523D01*
X61022380Y-60171428D01*
X61174761Y-60133333D01*
X61289047Y-60133333D01*
X61441428Y-60171428D01*
X61517619Y-60209523D01*
X61593809Y-60285714D01*
X61631904Y-60400000D01*
X61631904Y-60590476D01*
X61631904Y-59371428D02*
X61631904Y-59828571D01*
X61631904Y-59600000D02*
X60831904Y-59600000D01*
X60946190Y-59676190D01*
X61022380Y-59752380D01*
X61060476Y-59828571D01*
%TO.C,L1*%
X60166666Y-54561904D02*
X59785714Y-54561904D01*
X59785714Y-53761904D01*
X60852380Y-54561904D02*
X60395238Y-54561904D01*
X60623809Y-54561904D02*
X60623809Y-53761904D01*
X60547619Y-53876190D01*
X60471428Y-53952380D01*
X60395238Y-53990476D01*
%TO.C,Q1*%
X66023809Y-63888095D02*
X65947619Y-63850000D01*
X65871428Y-63773809D01*
X65757142Y-63659523D01*
X65680952Y-63621428D01*
X65604761Y-63621428D01*
X65642857Y-63811904D02*
X65566666Y-63773809D01*
X65490476Y-63697619D01*
X65452380Y-63545238D01*
X65452380Y-63278571D01*
X65490476Y-63126190D01*
X65566666Y-63050000D01*
X65642857Y-63011904D01*
X65795238Y-63011904D01*
X65871428Y-63050000D01*
X65947619Y-63126190D01*
X65985714Y-63278571D01*
X65985714Y-63545238D01*
X65947619Y-63697619D01*
X65871428Y-63773809D01*
X65795238Y-63811904D01*
X65642857Y-63811904D01*
X66747619Y-63811904D02*
X66290476Y-63811904D01*
X66519047Y-63811904D02*
X66519047Y-63011904D01*
X66442857Y-63126190D01*
X66366666Y-63202380D01*
X66290476Y-63240476D01*
%TO.C,Q2*%
X55573809Y-51438095D02*
X55497619Y-51400000D01*
X55421428Y-51323809D01*
X55307142Y-51209523D01*
X55230952Y-51171428D01*
X55154761Y-51171428D01*
X55192857Y-51361904D02*
X55116666Y-51323809D01*
X55040476Y-51247619D01*
X55002380Y-51095238D01*
X55002380Y-50828571D01*
X55040476Y-50676190D01*
X55116666Y-50600000D01*
X55192857Y-50561904D01*
X55345238Y-50561904D01*
X55421428Y-50600000D01*
X55497619Y-50676190D01*
X55535714Y-50828571D01*
X55535714Y-51095238D01*
X55497619Y-51247619D01*
X55421428Y-51323809D01*
X55345238Y-51361904D01*
X55192857Y-51361904D01*
X55840476Y-50638095D02*
X55878571Y-50600000D01*
X55954761Y-50561904D01*
X56145238Y-50561904D01*
X56221428Y-50600000D01*
X56259523Y-50638095D01*
X56297619Y-50714285D01*
X56297619Y-50790476D01*
X56259523Y-50904761D01*
X55802380Y-51361904D01*
X56297619Y-51361904D01*
%TO.C,Q3*%
X59773809Y-65138095D02*
X59697619Y-65100000D01*
X59621428Y-65023809D01*
X59507142Y-64909523D01*
X59430952Y-64871428D01*
X59354761Y-64871428D01*
X59392857Y-65061904D02*
X59316666Y-65023809D01*
X59240476Y-64947619D01*
X59202380Y-64795238D01*
X59202380Y-64528571D01*
X59240476Y-64376190D01*
X59316666Y-64300000D01*
X59392857Y-64261904D01*
X59545238Y-64261904D01*
X59621428Y-64300000D01*
X59697619Y-64376190D01*
X59735714Y-64528571D01*
X59735714Y-64795238D01*
X59697619Y-64947619D01*
X59621428Y-65023809D01*
X59545238Y-65061904D01*
X59392857Y-65061904D01*
X60002380Y-64261904D02*
X60497619Y-64261904D01*
X60230952Y-64566666D01*
X60345238Y-64566666D01*
X60421428Y-64604761D01*
X60459523Y-64642857D01*
X60497619Y-64719047D01*
X60497619Y-64909523D01*
X60459523Y-64985714D01*
X60421428Y-65023809D01*
X60345238Y-65061904D01*
X60116666Y-65061904D01*
X60040476Y-65023809D01*
X60002380Y-64985714D01*
%TO.C,U1*%
X61740476Y-68411904D02*
X61740476Y-69059523D01*
X61778571Y-69135714D01*
X61816666Y-69173809D01*
X61892857Y-69211904D01*
X62045238Y-69211904D01*
X62121428Y-69173809D01*
X62159523Y-69135714D01*
X62197619Y-69059523D01*
X62197619Y-68411904D01*
X62997619Y-69211904D02*
X62540476Y-69211904D01*
X62769047Y-69211904D02*
X62769047Y-68411904D01*
X62692857Y-68526190D01*
X62616666Y-68602380D01*
X62540476Y-68640476D01*
%TO.C,U2*%
X68690476Y-51011904D02*
X68690476Y-51659523D01*
X68728571Y-51735714D01*
X68766666Y-51773809D01*
X68842857Y-51811904D01*
X68995238Y-51811904D01*
X69071428Y-51773809D01*
X69109523Y-51735714D01*
X69147619Y-51659523D01*
X69147619Y-51011904D01*
X69490476Y-51088095D02*
X69528571Y-51050000D01*
X69604761Y-51011904D01*
X69795238Y-51011904D01*
X69871428Y-51050000D01*
X69909523Y-51088095D01*
X69947619Y-51164285D01*
X69947619Y-51240476D01*
X69909523Y-51354761D01*
X69452380Y-51811904D01*
X69947619Y-51811904D01*
%TO.C,U3*%
X64940476Y-68711904D02*
X64940476Y-69359523D01*
X64978571Y-69435714D01*
X65016666Y-69473809D01*
X65092857Y-69511904D01*
X65245238Y-69511904D01*
X65321428Y-69473809D01*
X65359523Y-69435714D01*
X65397619Y-69359523D01*
X65397619Y-68711904D01*
X65702380Y-68711904D02*
X66197619Y-68711904D01*
X65930952Y-69016666D01*
X66045238Y-69016666D01*
X66121428Y-69054761D01*
X66159523Y-69092857D01*
X66197619Y-69169047D01*
X66197619Y-69359523D01*
X66159523Y-69435714D01*
X66121428Y-69473809D01*
X66045238Y-69511904D01*
X65816666Y-69511904D01*
X65740476Y-69473809D01*
X65702380Y-69435714D01*
%TO.C,C1*%
X64016666Y-54935714D02*
X63978571Y-54973809D01*
X63864285Y-55011904D01*
X63788095Y-55011904D01*
X63673809Y-54973809D01*
X63597619Y-54897619D01*
X63559523Y-54821428D01*
X63521428Y-54669047D01*
X63521428Y-54554761D01*
X63559523Y-54402380D01*
X63597619Y-54326190D01*
X63673809Y-54250000D01*
X63788095Y-54211904D01*
X63864285Y-54211904D01*
X63978571Y-54250000D01*
X64016666Y-54288095D01*
X64778571Y-55011904D02*
X64321428Y-55011904D01*
X64550000Y-55011904D02*
X64550000Y-54211904D01*
X64473809Y-54326190D01*
X64397619Y-54402380D01*
X64321428Y-54440476D01*
%TO.C,C2*%
X60235714Y-68683333D02*
X60273809Y-68721428D01*
X60311904Y-68835714D01*
X60311904Y-68911904D01*
X60273809Y-69026190D01*
X60197619Y-69102380D01*
X60121428Y-69140476D01*
X59969047Y-69178571D01*
X59854761Y-69178571D01*
X59702380Y-69140476D01*
X59626190Y-69102380D01*
X59550000Y-69026190D01*
X59511904Y-68911904D01*
X59511904Y-68835714D01*
X59550000Y-68721428D01*
X59588095Y-68683333D01*
X59588095Y-68378571D02*
X59550000Y-68340476D01*
X59511904Y-68264285D01*
X59511904Y-68073809D01*
X59550000Y-67997619D01*
X59588095Y-67959523D01*
X59664285Y-67921428D01*
X59740476Y-67921428D01*
X59854761Y-67959523D01*
X60311904Y-68416666D01*
X60311904Y-67921428D01*
%TO.C,C3*%
X65735714Y-65783333D02*
X65773809Y-65821428D01*
X65811904Y-65935714D01*
X65811904Y-66011904D01*
X65773809Y-66126190D01*
X65697619Y-66202380D01*
X65621428Y-66240476D01*
X65469047Y-66278571D01*
X65354761Y-66278571D01*
X65202380Y-66240476D01*
X65126190Y-66202380D01*
X65050000Y-66126190D01*
X65011904Y-66011904D01*
X65011904Y-65935714D01*
X65050000Y-65821428D01*
X65088095Y-65783333D01*
X65011904Y-65516666D02*
X65011904Y-65021428D01*
X65316666Y-65288095D01*
X65316666Y-65173809D01*
X65354761Y-65097619D01*
X65392857Y-65059523D01*
X65469047Y-65021428D01*
X65659523Y-65021428D01*
X65735714Y-65059523D01*
X65773809Y-65097619D01*
X65811904Y-65173809D01*
X65811904Y-65402380D01*
X65773809Y-65478571D01*
X65735714Y-65516666D01*
%TO.C,R1*%
X63516666Y-65311904D02*
X63250000Y-64930952D01*
X63059523Y-65311904D02*
X63059523Y-64511904D01*
X63364285Y-64511904D01*
X63440476Y-64550000D01*
X63478571Y-64588095D01*
X63516666Y-64664285D01*
X63516666Y-64778571D01*
X63478571Y-64854761D01*
X63440476Y-64892857D01*
X63364285Y-64930952D01*
X63059523Y-64930952D01*
X64278571Y-65311904D02*
X63821428Y-65311904D01*
X64050000Y-65311904D02*
X64050000Y-64511904D01*
X63973809Y-64626190D01*
X63897619Y-64702380D01*
X63821428Y-64740476D01*
%TO.C,R2*%
X70616666Y-65161904D02*
X70350000Y-64780952D01*
X70159523Y-65161904D02*
X70159523Y-64361904D01*
X70464285Y-64361904D01*
X70540476Y-64400000D01*
X70578571Y-64438095D01*
X70616666Y-64514285D01*
X70616666Y-64628571D01*
X70578571Y-64704761D01*
X70540476Y-64742857D01*
X70464285Y-64780952D01*
X70159523Y-64780952D01*
X70921428Y-64438095D02*
X70959523Y-64400000D01*
X71035714Y-64361904D01*
X71226190Y-64361904D01*
X71302380Y-64400000D01*
X71340476Y-64438095D01*
X71378571Y-64514285D01*
X71378571Y-64590476D01*
X71340476Y-64704761D01*
X70883333Y-65161904D01*
X71378571Y-65161904D01*
%TO.C,R3*%
X58616666Y-62111904D02*
X58350000Y-61730952D01*
X58159523Y-62111904D02*
X58159523Y-61311904D01*
X58464285Y-61311904D01*
X58540476Y-61350000D01*
X58578571Y-61388095D01*
X58616666Y-61464285D01*
X58616666Y-61578571D01*
X58578571Y-61654761D01*
X58540476Y-61692857D01*
X58464285Y-61730952D01*
X58159523Y-61730952D01*
X58883333Y-61311904D02*
X59378571Y-61311904D01*
X59111904Y-61616666D01*
X59226190Y-61616666D01*
X59302380Y-61654761D01*
X59340476Y-61692857D01*
X59378571Y-61769047D01*
X59378571Y-61959523D01*
X59340476Y-62035714D01*
X59302380Y-62073809D01*
X59226190Y-62111904D01*
X58997619Y-62111904D01*
X58921428Y-62073809D01*
X58883333Y-62035714D01*
%TO.C,R4*%
X58616666Y-63361904D02*
X58350000Y-62980952D01*
X58159523Y-63361904D02*
X58159523Y-62561904D01*
X58464285Y-62561904D01*
X58540476Y-62600000D01*
X58578571Y-62638095D01*
X58616666Y-62714285D01*
X58616666Y-62828571D01*
X58578571Y-62904761D01*
X58540476Y-62942857D01*
X58464285Y-62980952D01*
X58159523Y-62980952D01*
X59302380Y-62828571D02*
X59302380Y-63361904D01*
X59111904Y-62523809D02*
X58921428Y-63095238D01*
X59416666Y-63095238D01*
%TO.C,R5*%
X55916666Y-68811904D02*
X55650000Y-68430952D01*
X55459523Y-68811904D02*
X55459523Y-68011904D01*
X55764285Y-68011904D01*
X55840476Y-68050000D01*
X55878571Y-68088095D01*
X55916666Y-68164285D01*
X55916666Y-68278571D01*
X55878571Y-68354761D01*
X55840476Y-68392857D01*
X55764285Y-68430952D01*
X55459523Y-68430952D01*
X56640476Y-68011904D02*
X56259523Y-68011904D01*
X56221428Y-68392857D01*
X56259523Y-68354761D01*
X56335714Y-68316666D01*
X56526190Y-68316666D01*
X56602380Y-68354761D01*
X56640476Y-68392857D01*
X56678571Y-68469047D01*
X56678571Y-68659523D01*
X56640476Y-68735714D01*
X56602380Y-68773809D01*
X56526190Y-68811904D01*
X56335714Y-68811904D01*
X56259523Y-68773809D01*
X56221428Y-68735714D01*
%TO.C,R6*%
X56776666Y-56411904D02*
X56510000Y-56030952D01*
X56319523Y-56411904D02*
X56319523Y-55611904D01*
X56624285Y-55611904D01*
X56700476Y-55650000D01*
X56738571Y-55688095D01*
X56776666Y-55764285D01*
X56776666Y-55878571D01*
X56738571Y-55954761D01*
X56700476Y-55992857D01*
X56624285Y-56030952D01*
X56319523Y-56030952D01*
X57462380Y-55611904D02*
X57310000Y-55611904D01*
X57233809Y-55650000D01*
X57195714Y-55688095D01*
X57119523Y-55802380D01*
X57081428Y-55954761D01*
X57081428Y-56259523D01*
X57119523Y-56335714D01*
X57157619Y-56373809D01*
X57233809Y-56411904D01*
X57386190Y-56411904D01*
X57462380Y-56373809D01*
X57500476Y-56335714D01*
X57538571Y-56259523D01*
X57538571Y-56069047D01*
X57500476Y-55992857D01*
X57462380Y-55954761D01*
X57386190Y-55916666D01*
X57233809Y-55916666D01*
X57157619Y-55954761D01*
X57119523Y-55992857D01*
X57081428Y-56069047D01*
%TD*%
M02*
